<svg xmlns="http://www.w3.org/2000/svg" viewBox="0 0 31 30"><g fill-rule="nonzero"><path d="M18.7721053 11.6725731c-.3547369-.3568421-.7480702-.6731579-1.1726901-.9431579-1.1246784-.7201754-2.4321637-1.10286549-3.7676608-1.10286549-1.8536257-.00345029-3.63192984.73304089-4.94035089 2.04602339l-6.34760234 6.3525731C1.23760234 19.3338596.50345029 21.1070175.5022807 22.9560234c-.00245614 3.8584795 3.12339181 6.9883626 6.98187135 6.9908187 1.85076023.0064328 3.62742685-.7265497 4.93538015-2.0360234l5.239766-5.2397661c.0952047-.0943859.1483626-.2231579.1476024-.357193-.001579-.275614-.2263158-.4977192-.5019298-.4961403h-.1995907c-1.0947368.0038596-2.1797076-.2063743-3.1937427-.6187719-.1868421-.0769006-.4015789-.0335088-.5439181.1097661L9.60005848 25.081345c-1.16994152 1.1699415-3.06678363 1.1699415-4.23672515 0-1.16994152-1.1699415-1.16994152-3.0667836 0-4.2367251l6.37257307-6.3675439c1.1690059-1.1675438 3.0627486-1.1675438 4.2317544 0 .7878363.741462 2.0167252.741462 2.8045029 0 .3389474-.3392397.5444445-.7891813.5788889-1.2675438.0364328-.5716375-.1743859-1.131462-.5789473-1.5369591z"/><path d="M28.3983041 2.04637427c-2.7284795-2.72847953-7.1522222-2.72847953-9.8807018 0L13.282807 7.27614035c-.1437427.14444445-.1852047.36169591-.1047953.54894737.0794737.18777778.2652047.30830409.4690643.30438596h.1846199c1.0934503-.0019883 2.1766667.20988305 3.1887719.62380117.1868421.07690059.401579.03350878.5439182-.10976608l3.7576608-3.75269006c1.1699415-1.16994152 3.0667836-1.16994152 4.2367251 0 1.1699416 1.16994152 1.1699416 3.06678363 0 4.23672515l-4.6808772 4.67584794-.0399415.0449123-1.6367836 1.6268421c-1.1690059 1.1675439-3.0627485 1.1675439-4.2317544 0-.7878363-.741462-2.0167251-.741462-2.8045029 0-.3411111.3418129-.5467836.7956725-.5788889 1.2774854-.0364912.5716374.1743275 1.131462.5788889 1.5370175.5776023.5800585 1.2533918 1.0530994 1.9960819 1.3972515.1047953.049883.2095906.0898245.3143859.1347368.1047953.0449123.2145614.0798246.3193567.1197661.1047954.0399415.2145614.0748538.3193568.1047953l.2944444.0798246c.1995907.049883.3992398.0898246.6038012.1247368.2464327.0366082.4946199.0599416.7435672.0698831h.3792398l.2994152-.0349123c.1097661-.0049708.2245614-.0299415.3543275-.0299415h.1696491l.3443275-.0498831.1597076-.0299415.2894152-.059883h.0549123c1.2257895-.3078948 2.3450877-.9425731 3.238655-1.8364328l6.3525731-6.3525731c2.7286549-2.72847951 2.7286549-7.1522222.0001754-9.88070173z"/></g></svg>
