<?xml version="1.0" encoding="UTF-8"?>
<svg width="84px" height="43px" viewBox="0 0 84 43" version="1.1" xmlns="http://www.w3.org/2000/svg" xmlns:xlink="http://www.w3.org/1999/xlink">
    <!-- Generator: Sketch 48.1 (47250) - http://www.bohemiancoding.com/sketch -->
    <title>Swip up Copy</title>
    <desc>Created with Sketch.</desc>
    <defs></defs>
    <g id="Header" stroke="none" stroke-width="1" fill="none" fill-rule="evenodd" transform="translate(-26.000000, -501.000000)">
        <g id="Swip-up-Copy" transform="translate(22.559012, 500.288999)" fill="#FFFFFF">
            <path d="M48.6278612,26.8580392 C48.3178169,27.3935179 47.4827173,28.7211905 47.3958373,29.3492885 C47.0889354,31.568034 48.6387908,33.6154757 50.8575363,33.9223777 L59.4128066,35.1057621 C59.8348955,35.1641464 60.2604991,35.1934422 60.6866068,35.1934422 L65.5922228,35.1934422 C68.6547748,35.1934422 71.507741,33.638173 73.1670544,31.06409 L78.4886533,22.8087254 C78.9816513,22.0439406 79.5603658,21.3379509 80.2135512,20.7044751 L83.1382619,17.8680163 C84.8425147,16.2151886 85.0708562,13.5602432 83.67385,11.6406884 L80.7662286,7.64547438 C79.330148,5.67222927 76.5799716,5.2092389 74.5769706,6.6035169 L71.6530154,8.63886614 C70.3548257,9.54252888 68.8901873,10.1795407 67.3439916,10.5129801 L51.2708965,13.9791665 C48.8622047,14.4986044 46.7582558,15.9530459 45.4213554,18.0229031 L33.605946,36.3161204 C33.5765925,36.3615669 33.5491111,36.4081955 33.5235706,36.4558892 C33.0065064,37.4214418 33.370078,38.6233401 34.3356306,39.1404043 C35.5304721,39.7802553 37.0158571,39.4086119 37.7686021,38.2814809 C41.1771157,33.1776241 43.5804088,29.5772403 44.9783628,27.4805077 C45.676591,26.4332645 46.3985349,25.3462283 46.4137249,25.3228805 C47.7797314,23.4534043 50.4144992,23.7723305 48.6278612,26.8580392 Z M39.9774796,39.7566495 C38.4654417,42.020716 35.481768,42.7672312 33.0816977,41.4819667 C30.8229359,40.2723745 29.972416,37.4607181 31.1820082,35.2019563 C31.2417563,35.0903843 31.3060449,34.9813038 31.3747127,34.8749888 L43.1901221,16.5817715 C44.9089942,13.9205265 47.6140713,12.0505303 50.7109607,11.3826816 L66.7840558,7.91649516 C67.9866525,7.65715343 69.1258156,7.16169976 70.1355188,6.45885096 L73.059474,4.42350172 C76.2486029,2.20356661 80.627366,2.94072848 82.9138583,6.08248079 L85.8214797,10.0776948 C87.9968691,13.0667864 87.6413005,17.201013 84.9874728,19.7747625 L82.0627621,22.6112213 C81.554729,23.1039247 81.1046178,23.6530278 80.7211749,24.2478605 L75.399576,32.503225 C73.251215,35.8359646 69.5573973,37.8496165 65.5922228,37.8496165 L60.6866068,37.8496165 C60.138754,37.8496165 59.5915494,37.8119506 59.0488637,37.736885 L50.4935934,36.5535005 C47.9146263,36.196772 45.8817327,34.4190887 45.0760301,32.1202435 C43.7472909,34.1111532 42.0477833,36.6566079 39.9774796,39.7566495 Z" id="Swipe-Copy" fill-rule="nonzero"></path>
            <g id="arrow">
                <path d="M10.6791356,43.0016402 L10.6791356,43.0016402 C9.57456606,43.0016402 8.67913556,42.1062097 8.67913556,41.0016402 L8.67913556,9.61673191 C8.67913556,8.51216241 9.57456606,7.61673191 10.6791356,7.61673191 L10.6791356,7.61673191 C11.7837051,7.61673191 12.6791356,8.51216241 12.6791356,9.61673191 L12.6791356,41.0016402 C12.6791356,42.1062097 11.7837051,43.0016402 10.6791356,43.0016402 Z" id="Line" fill-rule="nonzero"></path>
                <path d="M7.57292399,4.38029472 L16.422203,13.2295738 C16.8127273,13.620098 16.8127273,14.253263 16.422203,14.6437873 C16.2793645,14.7866258 16.0966157,14.8828563 15.89802,14.9198076 L5.02582604,16.9427225 C4.48285994,17.0437485 3.96080119,16.6854853 3.85977519,16.1425192 C3.837278,16.0216076 3.837278,15.8975833 3.85977519,15.7766717 L5.8826901,4.90447775 C5.9837161,4.36151165 6.50577485,4.0032484 7.04874096,4.1042744 C7.2473367,4.14122575 7.43008549,4.23745622 7.57292399,4.38029472 Z" id="Path-3" transform="translate(10.679136, 10.123362) rotate(-225.000000) translate(-10.679136, -10.123362) "></path>
            </g>
        </g>
    </g>
</svg>