<?xml version="1.0" encoding="UTF-8"?>
<svg width="69px" height="57px" viewBox="0 0 69 57" version="1.1" xmlns="http://www.w3.org/2000/svg" xmlns:xlink="http://www.w3.org/1999/xlink">
    <!-- Generator: Sketch 48.1 (47250) - http://www.bohemiancoding.com/sketch -->
    <title>menu icon</title>
    <desc>Created with Sketch.</desc>
    <defs></defs>
    <g id="Header" stroke="none" stroke-width="1" fill="none" fill-rule="evenodd" transform="translate(-234.000000, -19.000000)">
        <g id="menu-icon" transform="translate(268.046720, 47.310249) rotate(-90.000000) translate(-268.046720, -47.310249) translate(239.455170, 12.310249)" fill-rule="nonzero">
            <g id="Group" transform="translate(28.591549, 35.193324) scale(-1, 1) rotate(-180.000000) translate(-28.591549, -35.193324) translate(0.000000, 0.686281)">
                <polygon id="Shape" fill="#00A1E1" points="0 34.2486162 0 0.0521089634 5.60171357 0.0521089634 11.2034271 0.0521089634 11.2034271 34.2486162 11.2034271 68.4451235 5.60171357 68.4451235 0 68.4451235"></polygon>
                <polygon id="Shape" fill="#00A1E1" points="22.5371267 54.2454309 22.5371267 40.0457384 28.1388403 40.0457384 33.7405538 40.0457384 33.7405538 54.2454309 33.7405538 68.4451235 28.1388403 68.4451235 22.5371267 68.4451235"></polygon>
                <polygon id="Shape" fill="#00A1E1" points="22.5371267 14.2518015 22.5371267 0.0521089634 28.1388403 0.0521089634 33.7405538 0.0521089634 33.7405538 14.2518015 33.7405538 28.451494 28.1388403 28.451494 22.5371267 28.451494"></polygon>
                <polygon id="stroke" fill="#E72E2A" points="45.1393896 54.5450575 45.1393896 31.2523508 45.2045258 22.4068543 45.1393896 17.4434755 45.1393896 17.4434755 45.1393896 13.6004395 45.1393896 10.278493 45.1393896 6.82627421 45.1393896 0.0091190686 50.5456945 0.0091190686 56.4079529 0.0091190686 56.4079529 7.08681903 56.4079529 18.2902462 56.4079529 23.7616873 56.4079529 26.9533613 56.4079529 29.1028561 56.5382253 32.450857 56.4079529 50.8713755 56.4079529 68.4451235 50.8192666 68.4451235 45.2305803 68.4451235"></polygon>
            </g>
        </g>
    </g>
</svg>