<?xml version="1.0" encoding="UTF-8"?>
<svg width="28px" height="59px" viewBox="0 0 28 59" version="1.1" xmlns="http://www.w3.org/2000/svg" xmlns:xlink="http://www.w3.org/1999/xlink">
    <!-- Generator: Sketch 48.1 (47250) - http://www.bohemiancoding.com/sketch -->
    <title>Mouse</title>
    <desc>Created with Sketch.</desc>
    <defs></defs>
    <g id="Header-Desktop" stroke="none" stroke-width="1" fill="none" fill-rule="evenodd" transform="translate(-498.000000, -571.000000)">
        <g id="Mouse" transform="translate(498.356197, 570.973548)" fill="#FFFFFF">
            <path d="M13.6438033,3.38301116 C8.21742537,3.38301116 3.81847689,7.58896752 3.81847689,12.7772776 L3.81847689,26.9083713 C3.81847689,32.0966814 8.21742537,36.3026378 13.6438033,36.3026378 C19.0701813,36.3026378 23.4691297,32.0966814 23.4691297,26.9083713 L23.4691297,12.7772776 C23.4691297,7.58896752 19.0701813,3.38301116 13.6438033,3.38301116 Z M13.6438033,0.336222029 C20.8300876,0.336222029 26.6557221,5.90627235 26.6557221,12.7772776 L26.6557221,26.9083713 C26.6557221,33.7793766 20.8300876,39.3494269 13.6438033,39.3494269 C6.45751901,39.3494269 0.631884535,33.7793766 0.631884535,26.9083713 L0.631884535,12.7772776 C0.631884535,5.90627235 6.45751901,0.336222029 13.6438033,0.336222029 Z" id="Rectangle-8" fill-rule="nonzero"></path>
            <rect id="Rectangle-8" x="12.0315044" y="9.04255781" width="3.22459789" height="6.32246067" rx="1.61229895"></rect>
            <path d="M19.1043589,58.7653929 C18.8113189,58.7653929 18.530281,58.6540904 18.3230704,58.4559706 L14.4250918,54.7290054 C13.9935981,54.3164423 13.2940085,54.3164423 12.8625148,54.7290054 L8.96453622,58.4559706 C8.75732562,58.6540904 8.47628773,58.7653929 8.18324769,58.7653929 L7.48640344,58.7653929 C7.359573,58.7653929 7.23793722,58.7172202 7.14825456,58.6314721 C6.96150009,58.452911 6.96150009,58.1634062 7.14825456,57.9848451 L12.8625148,52.5212828 C13.2940085,52.1087197 13.9935981,52.1087197 14.4250918,52.5212828 L20.1393521,57.9848451 C20.2290347,58.0705932 20.2794179,58.1868925 20.2794179,58.3081586 C20.2794179,58.5606821 20.0653139,58.7653929 19.8012032,58.7653929 L19.1043589,58.7653929 Z" id="Rectangle-9" fill-rule="nonzero" transform="translate(13.643803, 55.488627) rotate(-180.000000) translate(-13.643803, -55.488627) "></path>
            <path d="M5.7695949,44.3081667 C6.19216332,44.3081667 6.59742444,44.4686667 6.89622543,44.7543586 L12.5171728,50.1287019 C13.1393936,50.7236245 14.148213,50.7236245 14.7704338,50.1287019 L20.3913812,44.7543586 C20.6901822,44.4686667 21.0954433,44.3081667 21.5180117,44.3081667 L22.5228723,44.3081667 C22.7057638,44.3081667 22.8811645,44.3776326 23.0104883,44.5012827 C23.2797913,44.7587707 23.2797913,45.1762412 23.0104883,45.4337291 L14.7704338,53.3122733 C14.148213,53.9071958 13.1393936,53.9071958 12.5171728,53.3122733 L4.27711828,45.4337291 C4.14779446,45.310079 4.07514109,45.1423735 4.07514109,44.9675059 C4.07514109,44.6033629 4.38388251,44.3081667 4.76473436,44.3081667 L5.7695949,44.3081667 Z" id="Rectangle-9-Copy" fill-rule="nonzero"></path>
        </g>
    </g>
</svg>